<svg width="21" height="21" viewBox="0 0 21 21" fill="none" xmlns="http://www.w3.org/2000/svg">
<g clip-path="url(#clip0_837_19698)">
<path opacity="0.14" d="M1.81515 3.12695H15.6104C16.6129 3.12695 17.4255 3.93962 17.4255 4.94213V12.9288C17.4255 13.9313 16.6129 14.744 15.6104 14.744H1.81515C0.812671 14.744 0 13.9313 0 12.9288V4.94213C0 3.93962 0.812671 3.12695 1.81515 3.12695Z" fill="black"/>
<path opacity="0.24" d="M17.4256 5.30469H0V8.20894H17.4256V5.30469Z" fill="black"/>
<path d="M5.447 11.1138H2.54273C2.34224 11.1138 2.17969 10.9512 2.17969 10.7507C2.17969 10.5502 2.34224 10.3877 2.54273 10.3877H5.447C5.64746 10.3877 5.81001 10.5502 5.81001 10.7507C5.81001 10.9512 5.64746 11.1138 5.447 11.1138Z" fill="white"/>
<path d="M7.62518 12.566H2.54273C2.34224 12.566 2.17969 12.4034 2.17969 12.2029C2.17969 12.0024 2.34224 11.8398 2.54273 11.8398H7.62518C7.82568 11.8398 7.98819 12.0024 7.98819 12.2029C7.98819 12.4034 7.82568 12.566 7.62518 12.566Z" fill="white"/>
<path d="M16.0868 17.8708C18.8012 17.8708 21.0017 15.6704 21.0017 12.9559C21.0017 10.2415 18.8012 8.04102 16.0868 8.04102C13.3724 8.04102 11.1719 10.2415 11.1719 12.9559C11.1719 15.6704 13.3724 17.8708 16.0868 17.8708Z" fill="#10B145"/>
<path fill-rule="evenodd" clip-rule="evenodd" d="M16.156 11.0625C15.9816 11.0625 15.8403 11.2038 15.8403 11.3782V12.6395H14.5771C14.4029 12.6395 14.2617 12.7807 14.2617 12.9548C14.2617 13.129 14.4029 13.2703 14.5771 13.2703H15.8403V14.5315C15.8403 14.7059 15.9816 14.8472 16.156 14.8472C16.3303 14.8472 16.4717 14.7059 16.4717 14.5315V13.2703H17.7348C17.909 13.2703 18.0502 13.129 18.0502 12.9548C18.0502 12.7807 17.909 12.6395 17.7348 12.6395H16.4717V11.3782C16.4717 11.2038 16.3303 11.0625 16.156 11.0625Z" fill="white"/>
</g>
<defs>
<clipPath id="clip0_837_19698">
<rect width="21" height="21" fill="white"/>
</clipPath>
</defs>
</svg>
