<svg width="21" height="20" viewBox="0 0 21 20" fill="none" xmlns="http://www.w3.org/2000/svg">
<path d="M7.40003 3H18.04C18.8132 3 19.44 3.58296 19.44 4.30207V10.0312C19.44 10.7503 18.8132 11.3333 18.04 11.3333H7.40003C6.6268 11.3333 6 10.7504 6 10.0312V4.3021C6 3.58296 6.6268 3 7.40003 3Z" fill="#5D8896"/>
<path d="M19.44 4.66602H6V6.33268H19.44V4.66602Z" fill="#46A175"/>
<path d="M11.7622 8.22886H9.52216C9.36752 8.22886 9.24219 8.11226 9.24219 7.96843C9.24219 7.82461 9.36752 7.70801 9.52216 7.70801H11.7622C11.9168 7.70801 12.0422 7.82461 12.0422 7.96843C12.0422 8.11226 11.9168 8.22886 11.7622 8.22886Z" fill="white"/>
<path d="M13.2 9.52083H9.27997C9.12541 9.52083 9 9.40425 9 9.26042C9 9.11658 9.12541 9 9.27997 9H13.2C13.3546 9 13.48 9.11658 13.48 9.26042C13.48 9.40425 13.3546 9.52083 13.2 9.52083Z" fill="white"/>
<path d="M11.7058 16.29V17.903C11.7058 18.6127 11.1206 19.1933 10.4052 19.1933H1.30065C0.585227 19.1933 0 18.6127 0 17.903V16.29C0 16.9998 0.585227 17.5804 1.30065 17.5804H10.4052C11.1206 17.5804 11.7058 16.9998 11.7058 16.29Z" fill="#434A54"/>
<path d="M1.625 2.41992H10.0792V5.00056H1.625V2.41992Z" fill="#46A175"/>
<path d="M11.7058 12.097V16.2905C11.7058 17.0002 11.1206 17.5808 10.4052 17.5808H1.30065C0.585227 17.5808 0 17.0002 0 16.2905V2.09696C0 1.38722 0.585227 0.806641 1.30065 0.806641H10.4052C11.1206 0.806641 11.7058 1.38722 11.7058 2.09696V12.097ZM10.08 15.6453V14.355H8.12903V15.6453H10.08ZM10.08 13.0647V11.7744H8.12903V13.0647H10.08ZM10.08 10.4841V9.19375H8.12903V10.4841H10.08ZM10.08 7.90341V6.61309H8.12903V7.90341H10.08ZM10.08 5.00019V2.41955H1.6258V5.00019H10.08ZM6.82839 15.6453V14.355H4.87742V15.6453H6.82839ZM6.82839 13.0647V11.7744H4.87742V13.0647H6.82839ZM6.82839 10.4841V9.19375H4.87742V10.4841H6.82839ZM6.82839 7.90341V6.61309H4.87742V7.90341H6.82839ZM3.57677 15.6453V14.355H1.6258V15.6453H3.57677ZM3.57677 13.0647V11.7744H1.6258V13.0647H3.57677ZM3.57677 10.4841V9.19375H1.6258V10.4841H3.57677ZM3.57677 7.90341V6.61309H1.6258V7.90341H3.57677Z" fill="#545454"/>
<path d="M1.625 14.6777H3.57598V15.9681H1.625V14.6777Z" fill="#CCD1D9"/>
<path d="M1.625 12.0977H3.57598V13.388H1.625V12.0977Z" fill="#CCD1D9"/>
<path d="M4.875 12.0977H6.82597V13.388H4.875V12.0977Z" fill="#CCD1D9"/>
<path d="M4.875 14.6777H6.82597V15.9681H4.875V14.6777Z" fill="#CCD1D9"/>
<path d="M8.12891 14.6777H10.0798V15.9681H8.12891V14.6777Z" fill="#CCD1D9"/>
<path d="M8.12891 12.0967H10.0798V13.387H8.12891V12.0967Z" fill="#CCD1D9"/>
<path d="M8.12891 9.5166H10.0798V10.8069H8.12891V9.5166Z" fill="#CCD1D9"/>
<path d="M8.12891 6.93555H10.0798V8.22587H8.12891V6.93555Z" fill="#CCD1D9"/>
<path d="M4.875 9.5166H6.82597V10.8069H4.875V9.5166Z" fill="#CCD1D9"/>
<path d="M4.875 6.93555H6.82597V8.22587H4.875V6.93555Z" fill="#CCD1D9"/>
<path d="M1.625 9.5166H3.57598V10.8069H1.625V9.5166Z" fill="#CCD1D9"/>
<path d="M1.625 6.93555H3.57598V8.22587H1.625V6.93555Z" fill="#CCD1D9"/>
<path d="M1.625 14.3555H3.57598V15.6458H1.625V14.3555Z" fill="#FFF5F5"/>
<path d="M1.625 11.7744H3.57598V13.0647H1.625V11.7744Z" fill="#FFF5F5"/>
<path d="M4.875 11.7744H6.82597V13.0647H4.875V11.7744Z" fill="#FFF5F5"/>
<path d="M4.875 14.3555H6.82597V15.6458H4.875V14.3555Z" fill="#FFF5F5"/>
<path d="M8.12891 14.3545H10.0798V15.6448H8.12891V14.3545Z" fill="#FFF5F5"/>
<path d="M8.12891 11.7744H10.0798V13.0647H8.12891V11.7744Z" fill="#FFF5F5"/>
<path d="M8.12891 9.19336H10.0798V10.4837H8.12891V9.19336Z" fill="#FFF5F5"/>
<path d="M8.12891 6.61328H10.0798V7.9036H8.12891V6.61328Z" fill="#FFF5F5"/>
<path d="M4.875 9.19336H6.82597V10.4837H4.875V9.19336Z" fill="#FFF5F5"/>
<path d="M4.875 6.61328H6.82597V7.9036H4.875V6.61328Z" fill="#FFF5F5"/>
<path d="M1.625 9.19336H3.57598V10.4837H1.625V9.19336Z" fill="#FFF5F5"/>
<path d="M1.625 6.61328H3.57598V7.9036H1.625V6.61328Z" fill="#FFF5F5"/>
</svg>
